<svg id="Layer_1" data-name="Layer 1" xmlns="http://www.w3.org/2000/svg" viewBox="0 0 546.48 132.4"><defs><style>.cls-1{fill:#fff;}</style></defs><path class="cls-1" d="M2.05,1.39C11.51-.85,23-.64,32.53,1A55.77,55.77,0,0,1,59.88,14.18l1,.93c22.47,20.55,23,50.63,1.54,72.16-2.45,2.46-4.92,4.91-8.06,8,5.55,4.18,10.84,8.34,16.3,12.26,7.65,5.51,7.64,5.51,2.35,13-7.94,11.28-6,10.9-17.41,2.77-7.3-5.19-14.57-10.42-22-15.47-1.5-1-3.52-1.27-5.31-1.87-.51,1.83-1.37,3.64-1.47,5.5-.2,4.14-.1,8.31,0,12.47.11,3.5-1.32,5.27-4.94,5.24-4.66,0-9.32,0-14,.07-3.25,0-4.82-1.45-4.8-4.85,0-6.48-.14-13-.24-19.46-.41-26.4-.78-52.82-1.63-79.18C1.07,17.64,1.55,9.52,2.05,1.39ZM24.29,51h.24c.31,7,.53,13.92,1,20.86.16,2.52.79,5.07,4.4,4.56,12.07-1.7,20.66-11,20.69-22.34,0-12.32-9.38-24.09-20.56-25.89-4-.65-5.92.61-5.8,4.9C24.42,39.09,24.29,45.06,24.29,51Z"/><path class="cls-1" d="M257.88,3.15c-.18.6-.34,1.22-.5,1.84h.4c0,5.11.19,9.68-.06,14.23-.22,4.07,1.69,5.45,5.92,5.23,4-.22,8,.22,12-.1,4.82-.39,6.24,1.23,6.18,5.67-.38,28.31-.52,56.62-.6,84.93,0,13.22-1.49,11.24,12.58,11.39,8.9.09,8.92,0,9-8q.22-44.31.43-88.61c0-6.11.35-6.29,7.12-6.49,5-.14,10-.6,15-.7,4.58-.1,6.07-2.13,5.71-6.16-.31-3.59-.06-7.23-.06-11.13h.53a20.05,20.05,0,0,0-1.29-2.15Z"/><path class="cls-1" d="M221.21,75.85q1.78-21.58,3.57-43.17c.48-6,.83-11.94,1.34-17.91.31-3.74,2.22-5.63,6.24-5.38a93.57,93.57,0,0,0,11.48,0c4.31-.26,5.61,1.85,5.39,5.71-.18,3.16-.08,6.33-.31,9.48-1.54,20.56-3.3,41.1-4.67,61.67-.8,11.94-1.11,23.92-1.47,35.89-.22,7-.07,7-7.34,7.2-.83,0-1.66,0-2.49.08-14.3,1.26-11,.8-16.84-10.38-9.53-18.39-18.49-37.08-27.79-55.59-.78-1.56-2.26-2.77-4.18-5.06-.16,2.72-.34,4.43-.34,6.15q0,29.19,0,58.38c0,6.17-.23,6.35-6.55,6.39-15.39.11-15.39.11-15.46-15.36q-.24-50.4-.46-100.81c0-7.14.08-6.54,7.27-7.3,10.63-1.13,17.1,1.73,21.68,12.56,7.53,17.8,17.23,34.69,26.08,51.94,1.1,2.15,2.58,4.1,3.87,6.15Z"/><path class="cls-1" d="M121.31,132.34c-7.32,0-14.65-.09-22,0-4,.07-6-1.26-6.07-5.73Q93,67.26,92.39,7.88c0-3.41,1.27-4.76,4.7-4.73q20.73.15,41.45,0c3.77,0,5.33,1.51,5.29,5.37-.13,17.15,1.8,15.66-15.36,15.83-3.49,0-7,.1-10.48,0-2.93-.08-4.25,1.12-4.22,4.12q.23,26,.3,51.9c0,2.87,1.4,3.76,4,3.68,3.17-.09,6.34.15,9.49,0,3.88-.24,5.46,1.53,5.51,5.25s.33,7.64.4,11.46c.06,3.08-1.59,4.52-4.66,4.5a89.08,89.08,0,0,0-11,.22c-1.27.15-2.34,1.94-3.49,3,1.17.85,2.32,2.4,3.52,2.43,8.48.23,17,.3,25.46.11,4.56-.1,7,1.27,6.36,6.26a47.68,47.68,0,0,0,0,6c0,9.1,0,9.1-9.39,9.11Z"/><path class="cls-1" d="M342.23,67.12c0,19.63.1,39.25-.07,58.88,0,4.78,1.81,6.46,6.45,6.4,11.82-.17,23.64-.05,35.46-.05,14.6,0,14.6,0,14.53-14.46,0-6.48-.27-6.78-6.67-6.82-8,0-16,0-24-.06-2,0-5.08.45-4.44-2.87.23-1.2,2.92-2.49,4.62-2.73,3.27-.44,6.67.07,10-.28,1.4-.15,3.8-1.46,3.81-2.26,0-5.77.31-11.74-1.21-17.16-.39-1.41-6.85-1.15-10.53-1.61a11,11,0,0,0-2.5,0c-3.39.35-4.73-1-4.73-4.54,0-16.63,0-33.26-.32-49.9-.07-4.3,1.7-5.43,5.64-5.32,6.32.17,12.65-.05,19-.11,3.67,0,5.51-1.84,5.48-5.55,0-3.16-.22-6.34,0-9.48.4-4.69-1.8-6.1-6.16-6.06-13.15.14-26.31.22-39.46-.05-4.74-.09-5.93,1.7-5.89,6.14Z"/><path class="cls-1" d="M470.12,6.33,495.8,50.69C506,37.81,515.28,26,524.64,14.13c5.39-6.81,5.5-6.88,12.4-1.5,12.36,9.66,12,7.45,2.32,19.85C529,45.83,518.36,59,508.17,72.55a15.5,15.5,0,0,0-2.56,8.77q-.08,21,.64,41.91c.15,4.65-1.59,6.34-6,6.15-4.16-.17-8.33-.21-12.48,0-3.93.21-5.27-1.35-5.22-5.23.16-12.81-.35-25.64.19-38.42a41.87,41.87,0,0,0-6.23-24.49c-7.72-12.75-14.73-25.93-22.2-38.83-2-3.51-2.29-6,1.83-8C460.52,12.13,464.72,9.46,470.12,6.33Z"/><path class="cls-1" d="M406.61,117.47c0,3,0,5.86,4.18,5.86q25.74,0,51.46,0c2.81,0,4.34-1.39,4.25-4.33-.13-4-.25-8-.33-12-.07-3.49-1.75-5.06-5.3-5-8.33.06-16.66-.07-25-.11-7.23,0-7.27,0-7.28-7.14q0-39.69,0-79.37c0-15.34,0-15.18-15.34-15.25-4.62,0-6.07,1.48-6,6.05.2,18.47.08,36.94.08,55.41Z"/></svg>